<?xml version="1.0" encoding="utf-8"?>
<!-- Generator: Adobe Illustrator 25.2.0, SVG Export Plug-In . SVG Version: 6.00 Build 0)  -->
<svg version="1.1" id="Layer_1" xmlns="http://www.w3.org/2000/svg" xmlns:xlink="http://www.w3.org/1999/xlink" x="0px" y="0px"
	 viewBox="0 0 20 20" style="enable-background:new 0 0 20 20;" xml:space="preserve">
<style type="text/css">
	.st0{fill:#FFFFFF;}
</style>
<path id="XMLID_2_" class="st0" d="M5.8,17.9V7.2H2.2v10.7H5.8L5.8,17.9z M4,5.7c1.2,0,2-0.8,2-1.9C6,2.8,5.2,2,4,2S2,2.8,2,3.8
	C2,4.9,2.8,5.7,4,5.7L4,5.7L4,5.7L4,5.7z"/>
<path id="XMLID_1_" class="st0" d="M7.8,17.9h3.6v-6c0-0.3,0-0.6,0.1-0.9c0.3-0.6,0.8-1.3,1.8-1.3c1.3,0,1.8,1,1.8,2.4v5.7h3.6v-6.1
	c0-3.3-1.8-4.8-4.1-4.8c-1.9,0-2.8,1.1-3.2,1.8h0V7.2H7.8C7.8,8.2,7.8,17.9,7.8,17.9L7.8,17.9L7.8,17.9z"/>
</svg>
