<?xml version="1.0" encoding="utf-8"?>
<!-- Generator: Adobe Illustrator 25.2.0, SVG Export Plug-In . SVG Version: 6.00 Build 0)  -->
<svg version="1.1" id="Layer_1" xmlns="http://www.w3.org/2000/svg" xmlns:xlink="http://www.w3.org/1999/xlink" x="0px" y="0px"
	 viewBox="0 0 1312.1 481.5" style="enable-background:new 0 0 1312.1 481.5;" xml:space="preserve">
<style type="text/css">
	.st0{fill:#253F96;}
</style>
<g id="XMLID_428_">
	<g id="XMLID_446_">
		<polygon id="XMLID_2_" class="st0" points="291.3,316.9 171.5,166.4 60.6,315.3 59.8,314.7 171.5,164.8 292.1,316.3 		"/>
	</g>
	<path id="XMLID_445_" class="st0" d="M131.4,259.6c-10.8,7.1-25.2,4.1-32.3-6.6c-7.1-10.8-4.1-25.2,6.6-32.3
		c10.8-7.1,25.2-4.1,32.3,6.6C145.1,238,142.1,252.5,131.4,259.6"/>
	<path id="XMLID_444_" class="st0" d="M184.9,184.8c-10.8,7.1-25.2,4.1-32.3-6.6c-7.1-10.8-4.1-25.2,6.6-32.3
		c10.8-7.1,25.2-4.1,32.3,6.6C198.6,163.2,195.6,177.7,184.9,184.8"/>
	<path id="XMLID_443_" class="st0" d="M246.7,259.1c-10.8,7.1-25.2,4.1-32.3-6.6c-7.1-10.8-4.1-25.2,6.6-32.3
		c10.8-7.1,25.2-4.1,32.3,6.6C260.4,237.5,257.4,252,246.7,259.1"/>
	<path id="XMLID_442_" class="st0" d="M305.1,335.7c-10.8,7.1-25.2,4.1-32.3-6.6c-7.1-10.8-4.1-25.2,6.6-32.3
		c10.8-7.1,25.2-4.1,32.3,6.6C318.8,314.2,315.8,328.6,305.1,335.7"/>
	<path id="XMLID_441_" class="st0" d="M75.1,331.8c-10.8,7.1-25.2,4.1-32.3-6.6c-7.1-10.8-4.1-25.2,6.6-32.3
		c10.8-7.1,25.2-4.1,32.3,6.6C88.8,310.2,85.9,324.7,75.1,331.8"/>
	<g id="XMLID_440_">
		<polygon id="XMLID_1_" class="st0" points="407,316.9 287.2,166.4 176.3,315.3 175.5,314.7 287.2,164.8 407.8,316.3 		"/>
	</g>
	<path id="XMLID_439_" class="st0" d="M247.1,259.6c-10.8,7.1-25.2,4.1-32.3-6.6c-7.1-10.8-4.1-25.2,6.6-32.3
		c10.8-7.1,25.2-4.1,32.3,6.6C260.8,238,257.9,252.5,247.1,259.6"/>
	<path id="XMLID_438_" class="st0" d="M300.6,184.8c-10.8,7.1-25.2,4.1-32.3-6.6c-7.1-10.8-4.1-25.2,6.6-32.3
		c10.8-7.1,25.2-4.1,32.3,6.6C314.3,163.2,311.4,177.7,300.6,184.8"/>
	<path id="XMLID_435_" class="st0" d="M362.4,259.1c-10.8,7.1-25.2,4.1-32.3-6.6c-7.1-10.8-4.1-25.2,6.6-32.3
		c10.8-7.1,25.2-4.1,32.3,6.6C376.1,237.5,373.2,252,362.4,259.1"/>
	<path id="XMLID_432_" class="st0" d="M420.8,335.7c-10.8,7.1-25.2,4.1-32.3-6.6c-7.1-10.8-4.1-25.2,6.6-32.3
		c10.8-7.1,25.2-4.1,32.3,6.6C434.5,314.2,431.6,328.6,420.8,335.7"/>
	<path id="XMLID_431_" class="st0" d="M190.8,331.8c-10.8,7.1-25.2,4.1-32.3-6.6c-7.1-10.8-4.1-25.2,6.6-32.3
		c10.8-7.1,25.2-4.1,32.3,6.6C204.6,310.2,201.6,324.7,190.8,331.8"/>
</g>
<path id="XMLID_65_" class="st0" d="M477.2,298.5V168.5h10.1v19.6h1c2.5-6.5,6.8-11.7,12.9-15.6c6.1-3.8,13.4-5.8,22-5.8
	c9.4,0,17,2.3,22.8,6.8c5.8,4.5,9.9,10.6,12.5,18.4h0.9c2.5-7.6,7.1-13.7,13.7-18.3c6.6-4.6,14.7-6.9,24.3-6.9
	c12.6,0,22.2,4,28.8,11.9c6.6,7.9,9.9,18.8,9.9,32.5v87.2h-10.3v-87.2c0-10.8-2.6-19.3-7.8-25.5s-12.8-9.3-22.8-9.3
	c-10.7,0-19,3.4-24.7,10.1c-5.8,6.7-8.6,15.3-8.6,25.6v86.4h-10.3v-87.9c0-10.1-2.5-18.3-7.6-24.7c-5.1-6.3-12.7-9.5-22.8-9.5
	c-6.9,0-12.8,1.6-17.8,4.7c-5,3.2-8.9,7.5-11.6,13c-2.7,5.5-4.1,11.9-4.1,19v85.3H477.2z"/>
<path id="XMLID_64_" class="st0" d="M753.4,301.2c-11.7,0-21.9-2.9-30.6-8.7c-8.7-5.8-15.4-13.8-20.1-23.9
	c-4.7-10.1-7.1-21.6-7.1-34.5c0-13,2.4-24.5,7.1-34.7c4.8-10.2,11.3-18.2,19.7-24c8.3-5.9,17.9-8.8,28.6-8.8
	c7.3,0,14.2,1.5,20.7,4.4c6.5,2.9,12.3,7.1,17.3,12.6c5,5.5,8.9,12.1,11.8,19.8c2.8,7.7,4.3,16.4,4.3,26.1v6.4H702v-9.4h92.5
	c0-9.4-1.9-17.9-5.8-25.5c-3.8-7.6-9.1-13.6-15.6-18c-6.6-4.5-14-6.7-22.2-6.7c-8.6,0-16.3,2.4-23.1,7.2c-6.7,4.8-12.1,11.3-16,19.5
	c-3.9,8.2-6,17.3-6.1,27.4v4.2c0,10.8,1.9,20.5,5.7,29.1c3.8,8.6,9.3,15.4,16.4,20.4c7.1,5,15.6,7.5,25.5,7.5
	c7.1,0,13.2-1.2,18.2-3.6c5-2.4,9.2-5.3,12.4-8.8c3.2-3.4,5.6-6.8,7.3-10l9.4,3.8c-2,4.3-5,8.7-9.2,13c-4.1,4.3-9.4,7.9-15.7,10.8
	C769.4,299.7,761.9,301.2,753.4,301.2"/>
<path id="XMLID_60_" class="st0" d="M915,177.7h-56.8v-9.2H915V177.7z M877.5,137.4h10.2v130.4c0,5.3,1,9.6,3.1,13
	c2.1,3.4,4.8,5.8,8.1,7.4c3.4,1.6,7,2.4,10.8,2.4c1.9,0,3.5-0.1,4.9-0.4c1.4-0.3,2.7-0.6,3.9-1.1l2.5,9.4c-1.6,0.6-3.3,1.1-5.2,1.5
	c-1.9,0.4-4.2,0.6-6.8,0.6c-5.4,0-10.5-1.2-15.4-3.6c-4.8-2.4-8.7-6-11.7-10.6c-3-4.6-4.5-10.2-4.5-16.7V137.4z"/>
<path id="XMLID_56_" class="st0" d="M1016.3,301.3c-7.5,0-14.4-1.5-20.6-4.5c-6.2-3-11.2-7.4-15-13.1c-3.7-5.8-5.6-12.7-5.6-21
	c0-5.4,1-10.2,2.9-14.3c1.9-4.1,4.9-7.7,8.9-10.7s9.1-5.5,15.4-7.4c6.3-1.9,13.7-3.5,22.4-4.5c6.6-0.8,12.5-1.6,17.7-2.3
	c5.2-0.8,9.3-2,12.2-3.6c3-1.6,4.4-4.1,4.4-7.4V207c0-9.5-3-17-9-22.6c-6-5.6-14.2-8.4-24.7-8.4c-9.3,0-17.1,2-23.5,6.1
	c-6.3,4.1-10.8,9.3-13.3,15.8l-9.7-3.6c2.5-6.2,6.1-11.4,10.8-15.5c4.7-4.1,10.1-7.2,16.2-9.2c6.1-2,12.5-3,19.2-3
	c5.8,0,11.4,0.8,16.6,2.5c5.3,1.6,10,4.1,14.1,7.4c4.1,3.3,7.4,7.6,9.9,12.7c2.4,5.2,3.6,11.3,3.6,18.5v90.8H1059V275h-0.8
	c-2.3,4.9-5.3,9.3-9.3,13.2c-3.9,4-8.6,7.1-14.1,9.5C1029.4,300.1,1023.2,301.3,1016.3,301.3 M1017.3,291.7c8.1,0,15.3-2,21.6-6
	c6.3-4,11.2-9.4,14.8-16.4c3.6-6.9,5.3-14.8,5.3-23.6v-19.1c-1.3,1.1-3.2,2.1-5.6,3c-2.5,0.9-5.2,1.6-8.3,2.3
	c-3.1,0.7-6.3,1.2-9.6,1.7c-3.4,0.5-6.6,0.9-9.8,1.3c-9.5,1.1-17.2,2.9-23.1,5.2c-6,2.3-10.3,5.4-13,9.2c-2.7,3.8-4.1,8.3-4.1,13.7
	c0,8.9,3,15.8,9.1,21C1000.6,289.1,1008.2,291.7,1017.3,291.7"/>
<path id="XMLID_55_" class="st0" d="M1197,300.8c-9.2,0-17.5-2-24.7-5.9c-7.2-3.9-13-9.3-17.2-16.2c-4.2-6.9-6.4-14.7-6.5-23.6h10.4
	c0.2,10.5,3.9,19.1,10.9,25.8c7.1,6.7,16.1,10.1,27.1,10.1c8.5,0,15.9-2,22.4-6.1c6.5-4.1,11.5-9.7,15.2-16.7
	c3.7-7.1,5.5-15,5.4-23.9c0-9.4-2-17.5-5.9-24.5c-3.9-7-9.2-12.4-15.8-16.2c-6.6-3.8-13.9-5.8-21.9-5.8c-6.3,0-12.2,1.1-17.8,3.4
	c-5.5,2.3-10.2,5.2-14.1,8.8l-11.9-1.7l10.2-83h81.2v9.8h-72.2l-8,64.9h0.8c4.1-3.6,8.9-6.5,14.5-8.8c5.6-2.2,11.7-3.3,18.3-3.3
	c9.7,0,18.6,2.4,26.6,7.1c8,4.7,14.4,11.3,19.2,19.8c4.8,8.5,7.1,18.3,7.1,29.5c-0.1,10.8-2.4,20.5-6.9,29
	c-4.6,8.5-10.9,15.2-18.9,20.2C1216.5,298.4,1207.4,300.8,1197,300.8"/>
</svg>
