<?xml version="1.0" encoding="utf-8"?>
<!-- Generator: Adobe Illustrator 25.2.0, SVG Export Plug-In . SVG Version: 6.00 Build 0)  -->
<svg version="1.1" id="Layer_1" xmlns="http://www.w3.org/2000/svg" xmlns:xlink="http://www.w3.org/1999/xlink" x="0px" y="0px"
	 viewBox="0 0 470.2 481.5" style="enable-background:new 0 0 470.2 481.5;" xml:space="preserve">
<style type="text/css">
	.st0{fill:none;stroke:#43B3B9;stroke-miterlimit:10;}
	.st1{fill:#81C7C0;}
	.st2{fill:#439EC0;}
	.st3{fill:#3A7EB5;}
	.st4{fill:#1E66AC;}
	.st5{fill:#31A3C2;}
	.st6{fill:#2EAAB6;}
	.st7{fill:#243F9A;}
	.st8{fill:#1F4E9D;}
</style>
<g id="XMLID_428_">
	<polyline id="XMLID_446_" class="st0" points="291.7,316.6 171.5,165.6 60.2,315 	"/>
	<path id="XMLID_445_" class="st1" d="M131.4,259.6c-10.8,7.1-25.2,4.1-32.3-6.6c-7.1-10.8-4.1-25.2,6.6-32.3
		c10.8-7.1,25.2-4.1,32.3,6.6C145.1,238,142.1,252.5,131.4,259.6"/>
	<path id="XMLID_444_" class="st2" d="M184.9,184.8c-10.8,7.1-25.2,4.1-32.3-6.6c-7.1-10.8-4.1-25.2,6.6-32.3
		c10.8-7.1,25.2-4.1,32.3,6.6C198.6,163.2,195.6,177.7,184.9,184.8"/>
	<path id="XMLID_443_" class="st3" d="M246.7,259.1c-10.8,7.1-25.2,4.1-32.3-6.6c-7.1-10.8-4.1-25.2,6.6-32.3
		c10.8-7.1,25.2-4.1,32.3,6.6C260.4,237.5,257.4,252,246.7,259.1"/>
	<path id="XMLID_442_" class="st4" d="M305.1,335.7c-10.8,7.1-25.2,4.1-32.3-6.6c-7.1-10.8-4.1-25.2,6.6-32.3
		c10.8-7.1,25.2-4.1,32.3,6.6C318.8,314.2,315.8,328.6,305.1,335.7"/>
	<path id="XMLID_441_" class="st5" d="M75.1,331.8c-10.8,7.1-25.2,4.1-32.3-6.6c-7.1-10.8-4.1-25.2,6.6-32.3
		c10.8-7.1,25.2-4.1,32.3,6.6C88.8,310.2,85.9,324.7,75.1,331.8"/>
	<polyline id="XMLID_440_" class="st0" points="407.4,316.6 287.2,165.6 175.9,315 	"/>
	<path id="XMLID_439_" class="st6" d="M247.1,259.6c-10.8,7.1-25.2,4.1-32.3-6.6c-7.1-10.8-4.1-25.2,6.6-32.3
		c10.8-7.1,25.2-4.1,32.3,6.6C260.8,238,257.9,252.5,247.1,259.6"/>
	<path id="XMLID_438_" class="st7" d="M300.6,184.8c-10.8,7.1-25.2,4.1-32.3-6.6c-7.1-10.8-4.1-25.2,6.6-32.3
		c10.8-7.1,25.2-4.1,32.3,6.6C314.3,163.2,311.4,177.7,300.6,184.8"/>
	<path id="XMLID_435_" class="st3" d="M362.4,259.1c-10.8,7.1-25.2,4.1-32.3-6.6c-7.1-10.8-4.1-25.2,6.6-32.3
		c10.8-7.1,25.2-4.1,32.3,6.6C376.1,237.5,373.2,252,362.4,259.1"/>
	<path id="XMLID_432_" class="st8" d="M420.8,335.7c-10.8,7.1-25.2,4.1-32.3-6.6c-7.1-10.8-4.1-25.2,6.6-32.3
		c10.8-7.1,25.2-4.1,32.3,6.6C434.5,314.2,431.6,328.6,420.8,335.7"/>
	<path id="XMLID_431_" class="st5" d="M190.8,331.8c-10.8,7.1-25.2,4.1-32.3-6.6c-7.1-10.8-4.1-25.2,6.6-32.3
		c10.8-7.1,25.2-4.1,32.3,6.6C204.6,310.2,201.6,324.7,190.8,331.8"/>
</g>
</svg>
