<?xml version="1.0" encoding="utf-8"?>
<!-- Generator: Adobe Illustrator 25.2.0, SVG Export Plug-In . SVG Version: 6.00 Build 0)  -->
<svg version="1.1" id="Layer_1" xmlns="http://www.w3.org/2000/svg" xmlns:xlink="http://www.w3.org/1999/xlink" x="0px" y="0px"
	 viewBox="0 0 517.5 151.1" style="enable-background:new 0 0 517.5 151.1;" xml:space="preserve">
<style type="text/css">
	.st0{fill:#2F6CAF;}
	.st1{fill:#6EC6D6;}
	.st2{fill:none;stroke:#44B6BA;stroke-miterlimit:10;}
	.st3{fill:#82CEC3;}
	.st4{fill:#459FC9;}
	.st5{fill:#3D7EB8;}
	.st6{fill:#184DA0;}
	.st7{fill:#34A7CC;}
	.st8{fill:#2CACB7;}
</style>
<g id="XMLID_2_">
	<path id="XMLID_23_" class="st0" d="M212.3,106.1V60h3.6v7h0.4c0.9-2.3,2.4-4.2,4.6-5.5c2.2-1.4,4.8-2,7.8-2c3.3,0,6,0.8,8.1,2.4
		c2.1,1.6,3.5,3.8,4.4,6.5h0.3c0.9-2.7,2.5-4.9,4.8-6.5c2.3-1.6,5.2-2.4,8.6-2.4c4.5,0,7.9,1.4,10.2,4.2c2.4,2.8,3.5,6.7,3.5,11.5
		v31H265v-31c0-3.8-0.9-6.9-2.8-9.1c-1.8-2.2-4.5-3.3-8.1-3.3c-3.8,0-6.7,1.2-8.8,3.6c-2,2.4-3.1,5.4-3.1,9.1v30.7h-3.7V74.9
		c0-3.6-0.9-6.5-2.7-8.8c-1.8-2.3-4.5-3.4-8.1-3.4c-2.4,0-4.6,0.6-6.3,1.7c-1.8,1.1-3.1,2.7-4.1,4.6c-1,2-1.5,4.2-1.5,6.8v30.3
		H212.3z"/>
	<path id="XMLID_22_" class="st0" d="M310.3,107c-4.2,0-7.8-1-10.9-3.1c-3.1-2.1-5.5-4.9-7.1-8.5c-1.7-3.6-2.5-7.7-2.5-12.3
		c0-4.6,0.8-8.7,2.5-12.3c1.7-3.6,4-6.4,7-8.5c3-2.1,6.3-3.1,10.2-3.1c2.6,0,5,0.5,7.3,1.5c2.3,1,4.4,2.5,6.1,4.5
		c1.8,1.9,3.2,4.3,4.2,7c1,2.7,1.5,5.8,1.5,9.2v2.3h-36.5v-3.3H325c0-3.3-0.7-6.4-2-9c-1.4-2.7-3.2-4.8-5.6-6.4
		c-2.3-1.6-5-2.4-7.9-2.4c-3.1,0-5.8,0.9-8.2,2.6c-2.4,1.7-4.3,4-5.7,6.9c-1.4,2.9-2.1,6.1-2.2,9.7v1.5c0,3.8,0.7,7.3,2,10.3
		c1.4,3.1,3.3,5.5,5.8,7.2c2.5,1.8,5.5,2.7,9.1,2.7c2.5,0,4.7-0.4,6.5-1.3c1.8-0.9,3.3-1.9,4.4-3.1c1.1-1.2,2-2.4,2.6-3.5l3.3,1.4
		c-0.7,1.5-1.8,3.1-3.3,4.6c-1.5,1.5-3.3,2.8-5.6,3.8C316,106.5,313.4,107,310.3,107"/>
	<path id="XMLID_19_" class="st0" d="M367.7,63.2h-20.1V60h20.1V63.2z M354.4,48.9h3.6v46.3c0,1.9,0.4,3.4,1.1,4.6
		c0.7,1.2,1.7,2.1,2.9,2.6c1.2,0.6,2.5,0.9,3.8,0.9c0.7,0,1.2,0,1.7-0.1c0.5-0.1,1-0.2,1.4-0.4l0.9,3.3c-0.6,0.2-1.2,0.4-1.9,0.5
		c-0.7,0.2-1.5,0.2-2.4,0.2c-1.9,0-3.7-0.4-5.4-1.3c-1.7-0.9-3.1-2.1-4.2-3.8c-1.1-1.6-1.6-3.6-1.6-5.9V48.9z"/>
	<path id="XMLID_16_" class="st0" d="M403.7,107.1c-2.7,0-5.1-0.5-7.3-1.6c-2.2-1.1-4-2.6-5.3-4.7c-1.3-2-2-4.5-2-7.4
		c0-1.9,0.3-3.6,1-5.1c0.7-1.5,1.7-2.7,3.2-3.8s3.2-1.9,5.5-2.6c2.2-0.7,4.9-1.2,8-1.6c2.3-0.3,4.4-0.6,6.3-0.8
		c1.8-0.3,3.3-0.7,4.3-1.3c1-0.6,1.6-1.5,1.6-2.6v-1.9c0-3.4-1.1-6-3.2-8c-2.1-2-5-3-8.8-3c-3.3,0-6.1,0.7-8.3,2.2
		c-2.3,1.5-3.8,3.3-4.7,5.6l-3.5-1.3c0.9-2.2,2.2-4,3.8-5.5c1.7-1.5,3.6-2.6,5.8-3.3c2.2-0.7,4.4-1.1,6.8-1.1c2.1,0,4,0.3,5.9,0.9
		c1.9,0.6,3.5,1.5,5,2.6c1.5,1.2,2.6,2.7,3.5,4.5c0.9,1.8,1.3,4,1.3,6.6v32.2h-3.7v-8.3h-0.3c-0.8,1.7-1.9,3.3-3.3,4.7
		c-1.4,1.4-3.1,2.5-5,3.4C408.3,106.7,406.1,107.1,403.7,107.1 M404,103.7c2.9,0,5.4-0.7,7.7-2.1c2.2-1.4,4-3.3,5.2-5.8
		c1.3-2.5,1.9-5.3,1.9-8.4v-6.8c-0.5,0.4-1.1,0.8-2,1.1c-0.9,0.3-1.9,0.6-2.9,0.8c-1.1,0.2-2.2,0.4-3.4,0.6
		c-1.2,0.2-2.3,0.3-3.5,0.5c-3.4,0.4-6.1,1-8.2,1.8c-2.1,0.8-3.7,1.9-4.6,3.3c-1,1.3-1.5,3-1.5,4.9c0,3.1,1.1,5.6,3.2,7.4
		C398.1,102.8,400.8,103.7,404,103.7"/>
	<path id="XMLID_15_" class="st1" d="M467.8,106.9c-3.3,0-6.2-0.7-8.8-2.1c-2.6-1.4-4.6-3.3-6.1-5.8c-1.5-2.4-2.3-5.2-2.3-8.4h3.7
		c0.1,3.7,1.4,6.8,3.9,9.2c2.5,2.4,5.7,3.6,9.6,3.6c3,0,5.6-0.7,7.9-2.2c2.3-1.5,4.1-3.4,5.4-5.9c1.3-2.5,1.9-5.3,1.9-8.5
		c0-3.3-0.7-6.2-2.1-8.7c-1.4-2.5-3.3-4.4-5.6-5.8c-2.3-1.4-4.9-2.1-7.8-2.1c-2.2,0-4.3,0.4-6.3,1.2c-2,0.8-3.6,1.8-5,3.1L452,74
		l3.6-29.5h28.8v3.5h-25.6l-2.8,23h0.3c1.4-1.3,3.2-2.3,5.1-3.1c2-0.8,4.2-1.2,6.5-1.2c3.4,0,6.6,0.8,9.4,2.5c2.9,1.7,5.1,4,6.8,7
		c1.7,3,2.5,6.5,2.5,10.5c0,3.8-0.8,7.3-2.5,10.3c-1.6,3-3.9,5.4-6.7,7.2C474.7,106,471.5,106.9,467.8,106.9"/>
</g>
<g id="XMLID_1_">
	<polyline id="XMLID_14_" class="st2" points="127.9,108 76.9,43.9 29.7,107.3 	"/>
	<path id="XMLID_13_" class="st3" d="M59.9,83.8c-4.6,3-10.7,1.8-13.7-2.8c-3-4.6-1.8-10.7,2.8-13.7c4.6-3,10.7-1.8,13.7,2.8
		C65.7,74.6,64.5,80.8,59.9,83.8"/>
	<path id="XMLID_12_" class="st4" d="M82.6,52.1c-4.6,3-10.7,1.8-13.7-2.8c-3-4.6-1.8-10.7,2.8-13.7c4.6-3,10.7-1.8,13.7,2.8
		C88.4,42.9,87.1,49.1,82.6,52.1"/>
	<path id="XMLID_11_" class="st5" d="M108.8,83.6c-4.6,3-10.7,1.8-13.7-2.8c-3-4.6-1.8-10.7,2.8-13.7c4.6-3,10.7-1.8,13.7,2.8
		C114.6,74.5,113.4,80.6,108.8,83.6"/>
	<path id="XMLID_10_" class="st6" d="M133.6,116.1c-4.6,3-10.7,1.8-13.7-2.8c-3-4.6-1.8-10.7,2.8-13.7c4.6-3,10.7-1.8,13.7,2.8
		C139.4,107,138.1,113.1,133.6,116.1"/>
	<path id="XMLID_9_" class="st7" d="M36,114.4c-4.6,3-10.7,1.8-13.7-2.8c-3-4.6-1.8-10.7,2.8-13.7c4.6-3,10.7-1.8,13.7,2.8
		C41.9,105.3,40.6,111.4,36,114.4"/>
	<polyline id="XMLID_8_" class="st2" points="177,108 126,43.9 78.8,107.3 	"/>
	<path id="XMLID_7_" class="st8" d="M109,83.8c-4.6,3-10.7,1.8-13.7-2.8c-3-4.6-1.8-10.7,2.8-13.7c4.6-3,10.7-1.8,13.7,2.8
		C114.8,74.6,113.5,80.8,109,83.8"/>
	<path id="XMLID_6_" class="st4" d="M131.7,52.1c-4.6,3-10.7,1.8-13.7-2.8c-3-4.6-1.8-10.7,2.8-13.7c4.6-3,10.7-1.8,13.7,2.8
		C137.5,42.9,136.2,49.1,131.7,52.1"/>
	<path id="XMLID_5_" class="st5" d="M157.9,83.6c-4.6,3-10.7,1.8-13.7-2.8c-3-4.6-1.8-10.7,2.8-13.7c4.6-3,10.7-1.8,13.7,2.8
		C163.7,74.5,162.4,80.6,157.9,83.6"/>
	<path id="XMLID_4_" class="st6" d="M182.6,116.1c-4.6,3-10.7,1.8-13.7-2.8c-3-4.6-1.8-10.7,2.8-13.7c4.6-3,10.7-1.8,13.7,2.8
		C188.5,107,187.2,113.1,182.6,116.1"/>
	<path id="XMLID_3_" class="st7" d="M85.1,114.4c-4.6,3-10.7,1.8-13.7-2.8c-3-4.6-1.8-10.7,2.8-13.7c4.6-3,10.7-1.8,13.7,2.8
		C90.9,105.3,89.7,111.4,85.1,114.4"/>
</g>
</svg>
